<svg xmlns="http://www.w3.org/2000/svg" xmlns:xlink="http://www.w3.org/1999/xlink" contentStyleType="text/css" data-diagram-type="DESCRIPTION" height="610px" preserveAspectRatio="none" style="width:1261px;height:610px;background:#FFFFFF;" version="1.1" viewBox="0 0 1261 610" width="1261px" zoomAndPan="magnify"><?plantuml 1.2026.6?><defs/><g><g class="title" data-source-line="1"><text fill="#000000" font-family="sans-serif" font-size="14" font-weight="700" lengthAdjust="spacing" textLength="491.3262" x="381.7614" y="24.5332">MCAL Sensor Gateway &#8212; Application Architecture (Worked Example, 4.1)</text></g><!--cluster Application Layer (app code, C, MISRA-C:2012)--><g class="cluster" data-qualified-name="Application Layer .app code. C. MISRA-C.2012." data-source-line="4" id="ent0001"><path d="M115.22,44.6094 L429.7161,44.6094 A3.75,3.75 0 0 1 432.2161,47.1094 L439.2161,68.2188 L537.22,68.2188 A2.5,2.5 0 0 1 539.72,70.7188 L539.72,149.1094 A2.5,2.5 0 0 1 537.22,151.6094 L115.22,151.6094 A2.5,2.5 0 0 1 112.72,149.1094 L112.72,47.1094 A2.5,2.5 0 0 1 115.22,44.6094" fill="none" style="stroke:#000000;stroke-width:1.5;"/><line style="stroke:#000000;stroke-width:1.5;" x1="112.72" x2="439.2161" y1="68.2188" y2="68.2188"/><text fill="#000000" font-family="sans-serif" font-size="14" font-weight="700" lengthAdjust="spacing" textLength="313.4961" x="116.72" y="61.1426">Application Layer (app code, C, MISRA-C:2012)</text></g><!--cluster MCAL (NXP S32K3 RTD)--><g class="cluster" data-qualified-name="MCAL .NXP S32K3 RTD." data-source-line="9" id="ent0004"><path d="M65.22,201.6094 L228.013,201.6094 A3.75,3.75 0 0 1 230.513,204.1094 L237.513,225.2188 L619.22,225.2188 A2.5,2.5 0 0 1 621.72,227.7188 L621.72,289.1094 A2.5,2.5 0 0 1 619.22,291.6094 L65.22,291.6094 A2.5,2.5 0 0 1 62.72,289.1094 L62.72,204.1094 A2.5,2.5 0 0 1 65.22,201.6094" fill="none" style="stroke:#000000;stroke-width:1.5;"/><line style="stroke:#000000;stroke-width:1.5;" x1="62.72" x2="237.513" y1="225.2188" y2="225.2188"/><text fill="#000000" font-family="sans-serif" font-size="14" font-weight="700" lengthAdjust="spacing" textLength="161.793" x="66.72" y="218.1426">MCAL (NXP S32K3 RTD)</text></g><!--entity MAIN--><g class="entity" data-qualified-name="Application Layer .app code. C. MISRA-C.2012..MAIN" data-source-line="5" id="ent0002"><rect fill="#F1F1F1" height="55.2188" rx="2.5" ry="2.5" style="stroke:#181818;stroke-width:0.5;" width="151.8994" x="128.72" y="80.6094"/><text fill="#000000" font-family="sans-serif" font-size="14" lengthAdjust="spacing" textLength="39.6689" x="138.72" y="105.1426">main()</text><text fill="#000000" font-family="sans-serif" font-size="14" lengthAdjust="spacing" textLength="66.1514" x="138.72" y="122.752">super-loop</text><text fill="#000000" font-family="sans-serif" font-size="14" lengthAdjust="spacing" textLength="3.8896" x="204.8714" y="122.752">&#160;</text><text fill="#000000" font-family="sans-serif" font-size="14" lengthAdjust="spacing" textLength="8.1758" x="208.761" y="122.752">+</text><text fill="#000000" font-family="sans-serif" font-size="14" lengthAdjust="spacing" textLength="3.8896" x="216.9368" y="122.752">&#160;</text><text fill="#000000" font-family="sans-serif" font-size="14" lengthAdjust="spacing" textLength="22.5654" x="220.8264" y="122.752">Gpt</text><text fill="#000000" font-family="sans-serif" font-size="14" lengthAdjust="spacing" textLength="3.8896" x="243.3919" y="122.752">&#160;</text><text fill="#000000" font-family="sans-serif" font-size="14" lengthAdjust="spacing" textLength="23.3379" x="247.2815" y="122.752">ISR</text></g><!--entity APPSENSOR--><g class="entity" data-qualified-name="Application Layer .app code. C. MISRA-C.2012..APPSENSOR" data-source-line="6" id="ent0003"><rect fill="#F1F1F1" height="55.2188" rx="2.5" ry="2.5" style="stroke:#181818;stroke-width:0.5;" width="208.3096" x="315.72" y="80.6094"/><text fill="#000000" font-family="sans-serif" font-size="14" lengthAdjust="spacing" textLength="82.5029" x="325.72" y="105.1426">AppSensor_*</text><text fill="#000000" font-family="sans-serif" font-size="14" lengthAdjust="spacing" textLength="47.4688" x="325.72" y="122.752">scaling,</text><text fill="#000000" font-family="sans-serif" font-size="14" lengthAdjust="spacing" textLength="3.8896" x="373.1888" y="122.752">&#160;</text><text fill="#000000" font-family="sans-serif" font-size="14" lengthAdjust="spacing" textLength="71.5859" x="377.0784" y="122.752">fault-check,</text><text fill="#000000" font-family="sans-serif" font-size="14" lengthAdjust="spacing" textLength="3.8896" x="448.6643" y="122.752">&#160;</text><text fill="#000000" font-family="sans-serif" font-size="14" lengthAdjust="spacing" textLength="27.2344" x="452.554" y="122.752">LED</text><text fill="#000000" font-family="sans-serif" font-size="14" lengthAdjust="spacing" textLength="3.8896" x="479.7884" y="122.752">&#160;</text><text fill="#000000" font-family="sans-serif" font-size="14" lengthAdjust="spacing" textLength="30.3516" x="483.678" y="122.752">state</text></g><!--entity MCU--><g class="entity" data-qualified-name="MCAL .NXP S32K3 RTD..MCU" data-source-line="10" id="ent0005"><rect fill="#F1F1F1" height="37.6094" rx="2.5" ry="2.5" style="stroke:#181818;stroke-width:0.5;" width="46.4482" x="78.72" y="237.6094"/><text fill="#000000" font-family="sans-serif" font-size="14" lengthAdjust="spacing" textLength="26.4482" x="88.72" y="262.1426">Mcu</text></g><!--entity PORT--><g class="entity" data-qualified-name="MCAL .NXP S32K3 RTD..PORT" data-source-line="11" id="ent0006"><rect fill="#F1F1F1" height="37.6094" rx="2.5" ry="2.5" style="stroke:#181818;stroke-width:0.5;" width="45.6758" x="159.72" y="237.6094"/><text fill="#000000" font-family="sans-serif" font-size="14" lengthAdjust="spacing" textLength="25.6758" x="169.72" y="262.1426">Port</text></g><!--entity ADC--><g class="entity" data-qualified-name="MCAL .NXP S32K3 RTD..ADC" data-source-line="12" id="ent0007"><rect fill="#F1F1F1" height="37.6094" rx="2.5" ry="2.5" style="stroke:#181818;stroke-width:0.5;" width="44.124" x="561.72" y="237.6094"/><text fill="#000000" font-family="sans-serif" font-size="14" lengthAdjust="spacing" textLength="24.124" x="571.72" y="262.1426">Adc</text></g><!--entity DIO--><g class="entity" data-qualified-name="MCAL .NXP S32K3 RTD..DIO" data-source-line="13" id="ent0008"><rect fill="#F1F1F1" height="37.6094" rx="2.5" ry="2.5" style="stroke:#181818;stroke-width:0.5;" width="41.0068" x="485.22" y="237.6094"/><text fill="#000000" font-family="sans-serif" font-size="14" lengthAdjust="spacing" textLength="21.0068" x="495.22" y="262.1426">Dio</text></g><!--entity GPT--><g class="entity" data-qualified-name="MCAL .NXP S32K3 RTD..GPT" data-source-line="14" id="ent0009"><rect fill="#F1F1F1" height="37.6094" rx="2.5" ry="2.5" style="stroke:#181818;stroke-width:0.5;" width="42.5654" x="241.22" y="237.6094"/><text fill="#000000" font-family="sans-serif" font-size="14" lengthAdjust="spacing" textLength="22.5654" x="251.22" y="262.1426">Gpt</text></g><!--entity CAN--><g class="entity" data-qualified-name="MCAL .NXP S32K3 RTD..CAN" data-source-line="15" id="ent0010"><rect fill="#F1F1F1" height="37.6094" rx="2.5" ry="2.5" style="stroke:#181818;stroke-width:0.5;" width="45.6826" x="403.72" y="237.6094"/><text fill="#000000" font-family="sans-serif" font-size="14" lengthAdjust="spacing" textLength="25.6826" x="413.72" y="262.1426">Can</text></g><!--entity WDG--><g class="entity" data-qualified-name="MCAL .NXP S32K3 RTD..WDG" data-source-line="16" id="ent0011"><rect fill="#F1F1F1" height="37.6094" rx="2.5" ry="2.5" style="stroke:#181818;stroke-width:0.5;" width="48.7861" x="319.22" y="237.6094"/><text fill="#000000" font-family="sans-serif" font-size="14" lengthAdjust="spacing" textLength="28.7861" x="329.22" y="262.1426">Wdg</text></g><!--entity HW--><g class="entity" data-qualified-name="HW" data-source-line="19" id="ent0012"><rect fill="#F1F1F1" height="55.2188" rx="2.5" ry="2.5" style="stroke:#181818;stroke-width:0.5;" width="173.2686" x="257.22" y="338.6094"/><text fill="#000000" font-family="sans-serif" font-size="14" lengthAdjust="spacing" textLength="60.6895" x="267.22" y="363.1426">Hardware</text><text fill="#000000" font-family="sans-serif" font-size="14" lengthAdjust="spacing" textLength="28.7861" x="267.22" y="380.752">NXP</text><text fill="#000000" font-family="sans-serif" font-size="14" lengthAdjust="spacing" textLength="3.8896" x="296.0061" y="380.752">&#160;</text><text fill="#000000" font-family="sans-serif" font-size="14" lengthAdjust="spacing" textLength="42.0342" x="299.8958" y="380.752">S32K3</text><text fill="#000000" font-family="sans-serif" font-size="14" lengthAdjust="spacing" textLength="3.8896" x="341.93" y="380.752">&#160;</text><text fill="#000000" font-family="sans-serif" font-size="14" lengthAdjust="spacing" textLength="74.6689" x="345.8196" y="380.752">(Cortex-M7)</text></g><g class="entity" data-qualified-name="GMN29" data-source-line="40" id="ent0030"><path d="M237.22,454.6094 L237.22,595.4219 A0,0 0 0 0 237.22,595.4219 L450.4588,595.4219 A0,0 0 0 0 450.4588,595.4219 L450.4588,464.6094 L440.4588,454.6094 L347.72,454.6094 L343.72,393.7394 L339.72,454.6094 L237.22,454.6094 A0,0 0 0 0 237.22,454.6094" fill="#FEFFDD" style="stroke:#181818;stroke-width:0.5;"/><path d="M440.4588,454.6094 L440.4588,464.6094 L450.4588,464.6094 L440.4588,454.6094" fill="#FEFFDD" style="stroke:#181818;stroke-width:0.5;"/><text fill="#000000" font-family="sans-serif" font-size="13" lengthAdjust="spacing" textLength="59.979" x="243.22" y="473.1045">Toolchain:</text><text fill="#000000" font-family="sans-serif" font-size="13" lengthAdjust="spacing" textLength="3.6118" x="303.199" y="473.1045">&#160;</text><text fill="#000000" font-family="sans-serif" font-size="13" lengthAdjust="spacing" textLength="23.1309" x="306.8108" y="473.1045">S32</text><text fill="#000000" font-family="sans-serif" font-size="13" lengthAdjust="spacing" textLength="3.6118" x="329.9417" y="473.1045">&#160;</text><text fill="#000000" font-family="sans-serif" font-size="13" lengthAdjust="spacing" textLength="40.4663" x="333.5535" y="473.1045">Design</text><text fill="#000000" font-family="sans-serif" font-size="13" lengthAdjust="spacing" textLength="3.6118" x="374.0198" y="473.1045">&#160;</text><text fill="#000000" font-family="sans-serif" font-size="13" lengthAdjust="spacing" textLength="40.4727" x="377.6316" y="473.1045">Studio,</text><text fill="#000000" font-family="sans-serif" font-size="13" lengthAdjust="spacing" textLength="112.7153" x="243.22" y="489.4561">arm-none-eabi-gcc,</text><text fill="#000000" font-family="sans-serif" font-size="13" lengthAdjust="spacing" textLength="3.6118" x="355.9353" y="489.4561">&#160;</text><text fill="#000000" font-family="sans-serif" font-size="13" lengthAdjust="spacing" textLength="23.1309" x="359.5471" y="489.4561">S32</text><text fill="#000000" font-family="sans-serif" font-size="13" lengthAdjust="spacing" textLength="3.6118" x="382.678" y="489.4561">&#160;</text><text fill="#000000" font-family="sans-serif" font-size="13" lengthAdjust="spacing" textLength="37.5781" x="386.2898" y="489.4561">Config</text><text fill="#000000" font-family="sans-serif" font-size="13" lengthAdjust="spacing" textLength="28.9009" x="243.22" y="505.8076">Tool,</text><text fill="#000000" font-family="sans-serif" font-size="13" lengthAdjust="spacing" textLength="65.0508" x="243.22" y="522.1592">Lauterbach</text><text fill="#000000" font-family="sans-serif" font-size="13" lengthAdjust="spacing" textLength="3.6118" x="308.2708" y="522.1592">&#160;</text><text fill="#000000" font-family="sans-serif" font-size="13" lengthAdjust="spacing" textLength="47.6899" x="311.8826" y="522.1592">Trace32</text><text fill="#000000" font-family="sans-serif" font-size="13" lengthAdjust="spacing" textLength="3.6118" x="359.5725" y="522.1592">&#160;</text><text fill="#000000" font-family="sans-serif" font-size="13" lengthAdjust="spacing" textLength="3.6118" x="363.1844" y="522.1592">/</text><text fill="#000000" font-family="sans-serif" font-size="13" lengthAdjust="spacing" textLength="3.6118" x="366.7962" y="522.1592">&#160;</text><text fill="#000000" font-family="sans-serif" font-size="13" lengthAdjust="spacing" textLength="23.1309" x="370.408" y="522.1592">S32</text><text fill="#000000" font-family="sans-serif" font-size="13" lengthAdjust="spacing" textLength="3.6118" x="393.5388" y="522.1592">&#160;</text><text fill="#000000" font-family="sans-serif" font-size="13" lengthAdjust="spacing" textLength="38.3081" x="397.1507" y="522.1592">Debug</text><text fill="#000000" font-family="sans-serif" font-size="13" lengthAdjust="spacing" textLength="38.3018" x="243.22" y="538.5107">Probe.</text><text fill="#000000" font-family="sans-serif" font-size="13" lengthAdjust="spacing" textLength="109.1226" x="243.22" y="554.8623">Reused/contrasted</text><text fill="#000000" font-family="sans-serif" font-size="13" lengthAdjust="spacing" textLength="3.6118" x="352.3426" y="554.8623">&#160;</text><text fill="#000000" font-family="sans-serif" font-size="13" lengthAdjust="spacing" textLength="10.1182" x="355.9544" y="554.8623">in</text><text fill="#000000" font-family="sans-serif" font-size="13" lengthAdjust="spacing" textLength="3.6118" x="366.0725" y="554.8623">&#160;</text><text fill="#000000" font-family="sans-serif" font-size="13" lengthAdjust="spacing" textLength="18.0718" x="369.6844" y="554.8623">7.2</text><text fill="#000000" font-family="sans-serif" font-size="13" lengthAdjust="spacing" textLength="3.6118" x="387.7561" y="554.8623">&#160;</text><text fill="#000000" font-family="sans-serif" font-size="13" lengthAdjust="spacing" textLength="41.9009" x="391.3679" y="554.8623">(Yocto)</text><text fill="#000000" font-family="sans-serif" font-size="13" lengthAdjust="spacing" textLength="15.1709" x="243.22" y="571.2139">for</text><text fill="#000000" font-family="sans-serif" font-size="13" lengthAdjust="spacing" textLength="3.6118" x="258.3909" y="571.2139">&#160;</text><text fill="#000000" font-family="sans-serif" font-size="13" lengthAdjust="spacing" textLength="18.0718" x="262.0027" y="571.2139">the</text><text fill="#000000" font-family="sans-serif" font-size="13" lengthAdjust="spacing" textLength="3.6118" x="280.0745" y="571.2139">&#160;</text><text fill="#000000" font-family="sans-serif" font-size="13" lengthAdjust="spacing" textLength="51.2891" x="283.6863" y="571.2139">Cortex-A</text><text fill="#000000" font-family="sans-serif" font-size="13" lengthAdjust="spacing" textLength="3.6118" x="334.9754" y="571.2139">&#160;</text><text fill="#000000" font-family="sans-serif" font-size="13" lengthAdjust="spacing" textLength="23.8481" x="338.5872" y="571.2139">side</text><text fill="#000000" font-family="sans-serif" font-size="13" lengthAdjust="spacing" textLength="3.6118" x="362.4353" y="571.2139">&#160;</text><text fill="#000000" font-family="sans-serif" font-size="13" lengthAdjust="spacing" textLength="10.8418" x="366.0471" y="571.2139">of</text><text fill="#000000" font-family="sans-serif" font-size="13" lengthAdjust="spacing" textLength="3.6118" x="376.8889" y="571.2139">&#160;</text><text fill="#000000" font-family="sans-serif" font-size="13" lengthAdjust="spacing" textLength="7.23" x="380.5008" y="571.2139">a</text><text fill="#000000" font-family="sans-serif" font-size="13" lengthAdjust="spacing" textLength="3.6118" x="387.7307" y="571.2139">&#160;</text><text fill="#000000" font-family="sans-serif" font-size="13" lengthAdjust="spacing" textLength="34.6772" x="391.3426" y="571.2139">mixed</text><text fill="#000000" font-family="sans-serif" font-size="13" lengthAdjust="spacing" textLength="44.7827" x="243.22" y="587.5654">system.</text></g><!--link MAIN to MCU--><g class="link" data-entity-1="ent0002" data-entity-2="ent0005" data-link-type="dependency" data-source-line="21" id="lnk13"><path d="M128.59,113.9894 C91.51,120.6694 49.99,135.4594 26.72,167.6094 C6,196.2294 44.8724,224.6198 73.9024,241.1098" fill="none" id="MAIN-to-MCU" style="stroke:#181818;stroke-width:1;"/><polygon fill="#181818" points="78.25,243.5794,72.4,235.6561,73.9024,241.1098,68.4487,242.6122,78.25,243.5794" style="stroke:#181818;stroke-width:1;stroke-linejoin:miter;stroke-miterlimit:10;"/></g><!--link MAIN to PORT--><g class="link" data-entity-1="ent0002" data-entity-2="ent0006" data-link-type="dependency" data-source-line="22" id="lnk14"><path d="M128.44,116.2894 C94.87,123.6794 58.42,138.4194 37.72,167.6094 C33.09,174.1394 32.28,179.7394 37.72,185.6094 C53.47,202.6194 121.74,181.8594 141.72,193.6094 C158.4,203.4194 167.5916,218.4449 174.0116,232.9949" fill="none" id="MAIN-to-PORT" style="stroke:#181818;stroke-width:1;"/><polygon fill="#181818" points="176.03,237.5694,176.0564,227.7206,174.0116,232.9949,168.7372,230.95,176.03,237.5694" style="stroke:#181818;stroke-width:1;stroke-linejoin:miter;stroke-miterlimit:10;"/></g><!--link MAIN to WDG--><g class="link" data-entity-1="ent0002" data-entity-2="ent0011" data-link-type="dependency" data-source-line="23" id="lnk15"><path d="M205.2,135.8094 C207.02,152.6894 212.33,173.5194 226.72,185.6094 C252.39,207.1694 272.98,176.3494 301.72,193.6094 C318.33,203.5794 327.7242,218.4145 334.4342,232.8645" fill="none" id="MAIN-to-WDG" style="stroke:#181818;stroke-width:1;"/><polygon fill="#181818" points="336.54,237.3994,336.3774,227.5519,334.4342,232.8645,329.1216,230.9212,336.54,237.3994" style="stroke:#181818;stroke-width:1;stroke-linejoin:miter;stroke-miterlimit:10;"/></g><!--link MAIN to GPT--><g class="link" data-entity-1="ent0002" data-entity-2="ent0009" data-link-type="dependency" data-source-line="24" id="lnk16"><path d="M128.4,126.0694 C85.61,138.9494 45.46,158.9894 70.72,185.6094 C82.36,197.8794 208.09,185.1294 222.72,193.6094 C239.34,203.2394 248.2775,218.2621 254.4375,232.8721" fill="none" id="MAIN-to-GPT" style="stroke:#181818;stroke-width:1;"/><polygon fill="#181818" points="256.38,237.4794,256.5692,227.6323,254.4375,232.8721,249.1976,230.7404,256.38,237.4794" style="stroke:#181818;stroke-width:1;stroke-linejoin:miter;stroke-miterlimit:10;"/><text fill="#000000" font-family="sans-serif" font-size="13" lengthAdjust="spacing" textLength="31.7891" x="71.72" y="182.1045">10ms</text><text fill="#000000" font-family="sans-serif" font-size="13" lengthAdjust="spacing" textLength="3.6118" x="103.5091" y="182.1045">&#160;</text><text fill="#000000" font-family="sans-serif" font-size="13" lengthAdjust="spacing" textLength="45.5254" x="107.1209" y="182.1045">periodic</text><text fill="#000000" font-family="sans-serif" font-size="13" lengthAdjust="spacing" textLength="3.6118" x="152.6463" y="182.1045">&#160;</text><text fill="#000000" font-family="sans-serif" font-size="13" lengthAdjust="spacing" textLength="21.6709" x="156.2581" y="182.1045">ISR</text></g><!--link GPT to APPSENSOR--><g class="link" data-entity-1="ent0009" data-entity-2="ent0003" data-link-type="dependency" data-source-line="25" id="lnk17"><path d="M254.57,237.5294 C247.14,217.9894 239.56,187.0594 255.72,167.6094 C268.14,152.6594 280.09,165.1594 298.72,159.6094 C320.21,153.2094 338.4758,146.2226 358.4758,137.6326" fill="none" id="GPT-to-APPSENSOR" style="stroke:#181818;stroke-width:1;"/><polygon fill="#181818" points="363.07,135.6594,353.2219,135.5358,358.4758,137.6326,356.379,142.8865,363.07,135.6594" style="stroke:#181818;stroke-width:1;stroke-linejoin:miter;stroke-miterlimit:10;"/><text fill="#000000" font-family="sans-serif" font-size="13" lengthAdjust="spacing" textLength="43.3481" x="256.72" y="182.1045">triggers</text><text fill="#000000" font-family="sans-serif" font-size="13" lengthAdjust="spacing" textLength="3.6118" x="300.0681" y="182.1045">&#160;</text><text fill="#000000" font-family="sans-serif" font-size="13" lengthAdjust="spacing" textLength="124.9854" x="303.68" y="182.1045">AppCyclicTask_10ms</text></g><!--link APPSENSOR to ADC--><g class="link" data-entity-1="ent0003" data-entity-2="ent0007" data-link-type="dependency" data-source-line="26" id="lnk18"><path d="M523.94,110.6394 C702.72,114.3494 1052.32,126.7994 1089.72,167.6094 C1157.8,241.8894 716.3193,253.5175 610.7393,255.2475" fill="none" id="APPSENSOR-to-ADC" style="stroke:#181818;stroke-width:1;"/><polygon fill="#181818" points="605.74,255.3294,614.8043,259.1814,610.7393,255.2475,614.6733,251.1825,605.74,255.3294" style="stroke:#181818;stroke-width:1;stroke-linejoin:miter;stroke-miterlimit:10;"/><text fill="#000000" font-family="sans-serif" font-size="13" lengthAdjust="spacing" textLength="96.8398" x="1097.72" y="182.1045">Adc_ReadGroup</text><text fill="#000000" font-family="sans-serif" font-size="13" lengthAdjust="spacing" textLength="3.6118" x="1194.5598" y="182.1045">&#160;</text><text fill="#000000" font-family="sans-serif" font-size="13" lengthAdjust="spacing" textLength="47.6772" x="1198.1717" y="182.1045">(sensor)</text></g><!--link APPSENSOR to DIO--><g class="link" data-entity-1="ent0003" data-entity-2="ent0008" data-link-type="dependency" data-source-line="27" id="lnk19"><path d="M523.83,114.8094 C655.41,123.0894 867.76,140.4994 891.72,167.6094 C897.02,173.5994 897.31,179.8894 891.72,185.6094 C878.24,199.3994 561.49,184.0894 544.72,193.6094 C528.13,203.0194 519.4491,218.0479 513.5691,232.7279" fill="none" id="APPSENSOR-to-DIO" style="stroke:#181818;stroke-width:1;"/><polygon fill="#181818" points="511.71,237.3694,518.7696,230.502,513.5691,232.7279,511.3432,227.5273,511.71,237.3694" style="stroke:#181818;stroke-width:1;stroke-linejoin:miter;stroke-miterlimit:10;"/><text fill="#000000" font-family="sans-serif" font-size="13" lengthAdjust="spacing" textLength="106.2407" x="896.72" y="182.1045">Dio_ReadChannel</text><text fill="#000000" font-family="sans-serif" font-size="13" lengthAdjust="spacing" textLength="3.6118" x="1002.9607" y="182.1045">&#160;</text><text fill="#000000" font-family="sans-serif" font-size="13" lengthAdjust="spacing" textLength="30.3481" x="1006.5725" y="182.1045">(door</text><text fill="#000000" font-family="sans-serif" font-size="13" lengthAdjust="spacing" textLength="3.6118" x="1036.9207" y="182.1045">&#160;</text><text fill="#000000" font-family="sans-serif" font-size="13" lengthAdjust="spacing" textLength="40.4473" x="1040.5325" y="182.1045">switch)</text></g><!--link APPSENSOR to DIO--><g class="link" data-entity-1="ent0003" data-entity-2="ent0008" data-link-type="dependency" data-source-line="29" id="lnk21"><path d="M523.82,124.7094 C572.57,134.3494 623.11,148.5694 637.72,167.6094 C642.59,173.9594 643.13,179.7194 637.72,185.6094 C623.69,200.8894 562.43,182.8094 544.72,193.6094 C528.54,203.4694 519.894,218.2402 513.894,232.7202" fill="none" id="APPSENSOR-to-DIO-1" style="stroke:#181818;stroke-width:1;"/><polygon fill="#181818" points="511.98,237.3394,519.1205,230.5561,513.894,232.7202,511.7299,227.4937,511.98,237.3394" style="stroke:#181818;stroke-width:1;stroke-linejoin:miter;stroke-miterlimit:10;"/><text fill="#000000" font-family="sans-serif" font-size="13" lengthAdjust="spacing" textLength="105.4917" x="641.72" y="182.1045">Dio_WriteChannel</text><text fill="#000000" font-family="sans-serif" font-size="13" lengthAdjust="spacing" textLength="3.6118" x="747.2117" y="182.1045">&#160;</text><text fill="#000000" font-family="sans-serif" font-size="13" lengthAdjust="spacing" textLength="39.0127" x="750.8235" y="182.1045">(status</text><text fill="#000000" font-family="sans-serif" font-size="13" lengthAdjust="spacing" textLength="3.6118" x="789.8362" y="182.1045">&#160;</text><text fill="#000000" font-family="sans-serif" font-size="13" lengthAdjust="spacing" textLength="29.6182" x="793.448" y="182.1045">LED)</text></g><!--link APPSENSOR to CAN--><g class="link" data-entity-1="ent0003" data-entity-2="ent0010" data-link-type="dependency" data-source-line="28" id="lnk20"><path d="M429.21,135.8494 C432.25,145.6994 435.21,157.0294 436.72,167.6094 C440.14,191.6594 436.6329,214.6725 432.6029,232.4925" fill="none" id="APPSENSOR-to-CAN" style="stroke:#181818;stroke-width:1;"/><polygon fill="#181818" points="431.5,237.3694,437.3867,229.4734,432.6029,232.4925,429.5837,227.7087,431.5,237.3694" style="stroke:#181818;stroke-width:1;stroke-linejoin:miter;stroke-miterlimit:10;"/><text fill="#000000" font-family="sans-serif" font-size="13" lengthAdjust="spacing" textLength="61.4072" x="438.72" y="182.1045">Can_Write</text><text fill="#000000" font-family="sans-serif" font-size="13" lengthAdjust="spacing" textLength="3.6118" x="500.1272" y="182.1045">&#160;</text><text fill="#000000" font-family="sans-serif" font-size="13" lengthAdjust="spacing" textLength="43.3608" x="503.739" y="182.1045">(0x100,</text><text fill="#000000" font-family="sans-serif" font-size="13" lengthAdjust="spacing" textLength="3.6118" x="547.0999" y="182.1045">&#160;</text><text fill="#000000" font-family="sans-serif" font-size="13" lengthAdjust="spacing" textLength="31.7891" x="550.7117" y="182.1045">every</text><text fill="#000000" font-family="sans-serif" font-size="13" lengthAdjust="spacing" textLength="3.6118" x="582.5008" y="182.1045">&#160;</text><text fill="#000000" font-family="sans-serif" font-size="13" lengthAdjust="spacing" textLength="43.3481" x="586.1126" y="182.1045">100ms)</text></g><!--link MCU to HW--><g class="link" data-entity-1="ent0005" data-entity-2="ent0012" data-link-type="dependency" data-source-line="31" id="lnk22"><path d="M115.65,275.9694 C122.69,284.1794 131.83,293.3894 141.72,299.6094 C176.67,321.5994 214.8779,335.5673 252.2279,345.8073" fill="none" id="MCU-to-HW" style="stroke:#181818;stroke-width:1;"/><polygon fill="#181818" points="257.05,347.1294,249.4279,340.8921,252.2279,345.8073,247.3127,348.6074,257.05,347.1294" style="stroke:#181818;stroke-width:1;stroke-linejoin:miter;stroke-miterlimit:10;"/></g><!--link PORT to HW--><g class="link" data-entity-1="ent0006" data-entity-2="ent0012" data-link-type="dependency" data-source-line="32" id="lnk23"><path d="M198.41,275.9794 C205.64,283.8194 214.62,292.7194 223.72,299.6094 C243.11,314.2994 261.7775,325.4158 282.5075,336.2358" fill="none" id="PORT-to-HW" style="stroke:#181818;stroke-width:1;"/><polygon fill="#181818" points="286.94,338.5494,280.8123,330.8389,282.5075,336.2358,277.1106,337.931,286.94,338.5494" style="stroke:#181818;stroke-width:1;stroke-linejoin:miter;stroke-miterlimit:10;"/></g><!--link ADC to HW--><g class="link" data-entity-1="ent0007" data-entity-2="ent0012" data-link-type="dependency" data-source-line="33" id="lnk24"><path d="M569.78,275.9594 C562.73,284.1694 553.6,293.3694 543.72,299.6094 C509.43,321.2594 472.0858,335.1049 435.3358,345.3649" fill="none" id="ADC-to-HW" style="stroke:#181818;stroke-width:1;"/><polygon fill="#181818" points="430.52,346.7094,440.2641,348.1419,435.3358,345.3649,438.1129,340.4366,430.52,346.7094" style="stroke:#181818;stroke-width:1;stroke-linejoin:miter;stroke-miterlimit:10;"/></g><!--link DIO to HW--><g class="link" data-entity-1="ent0008" data-entity-2="ent0012" data-link-type="dependency" data-source-line="34" id="lnk25"><path d="M491.78,275.6894 C485.07,283.6494 476.57,292.7294 467.72,299.6094 C448.4,314.6194 429.6058,325.7006 408.4758,336.3406" fill="none" id="DIO-to-HW" style="stroke:#181818;stroke-width:1;"/><polygon fill="#181818" points="404.01,338.5894,413.8474,338.1143,408.4758,336.3406,410.2494,330.969,404.01,338.5894" style="stroke:#181818;stroke-width:1;stroke-linejoin:miter;stroke-miterlimit:10;"/></g><!--link GPT to HW--><g class="link" data-entity-1="ent0009" data-entity-2="ent0012" data-link-type="dependency" data-source-line="35" id="lnk26"><path d="M276.46,275.8494 C289.37,292.9794 305.8308,314.8263 320.5108,334.3063" fill="none" id="GPT-to-HW" style="stroke:#181818;stroke-width:1;"/><polygon fill="#181818" points="323.52,338.2994,321.298,328.7045,320.5108,334.3063,314.909,333.5191,323.52,338.2994" style="stroke:#181818;stroke-width:1;stroke-linejoin:miter;stroke-miterlimit:10;"/></g><!--link CAN to HW--><g class="link" data-entity-1="ent0010" data-entity-2="ent0012" data-link-type="dependency" data-source-line="36" id="lnk27"><path d="M412.64,275.8494 C399.41,292.9794 382.5156,314.8617 367.4756,334.3417" fill="none" id="CAN-to-HW" style="stroke:#181818;stroke-width:1;"/><polygon fill="#181818" points="364.42,338.2994,373.0863,333.6201,367.4756,334.3417,366.754,328.7311,364.42,338.2994" style="stroke:#181818;stroke-width:1;stroke-linejoin:miter;stroke-miterlimit:10;"/></g><!--link WDG to HW--><g class="link" data-entity-1="ent0011" data-entity-2="ent0012" data-link-type="dependency" data-source-line="37" id="lnk28"><path d="M343.72,275.8494 C343.72,292.9794 343.72,313.8194 343.72,333.2994" fill="none" id="WDG-to-HW" style="stroke:#181818;stroke-width:1;"/><polygon fill="#181818" points="343.72,338.2994,347.72,329.2994,343.72,333.2994,339.72,329.2994,343.72,338.2994" style="stroke:#181818;stroke-width:1;stroke-linejoin:miter;stroke-miterlimit:10;"/></g><?plantuml-src TLJHRjem57tFLrpn53P2WKwgnCEaAAbeDMWHKB59bP1nBeb5OaUsCq3Jf7t4ld1VickNqiAqj-kSSwxFFRvWXIqH9aayXZbAepICcCKTEy2VNxyXhkjIS6Q5aX1hNWYBt3OQ8LmglSKCRlUigalimATklnsOhP0rqwo2dMRrKcIsW46l5mGrurkM8xJUDnop0se8MLq3LndrI3emkP_FuYWP3dhzGRi5Fm80JLSocPFBLiM43DlFqZGrwgXKgeQFCAejaAe5pC0aldyubz25BtEjFf2EirB8l0CRrfGsuWNoRGV6joaOIrFx5l5qEhzzc3_EWf_lVFk0meUlKvXV3xvSmsoH_cjlmfiN5ydJEJ1Lsdfa-ZXRNFZB-CkrQN8Ef49v8Br_F0TeNW-CfXUj4YOzaCGN6Iopt0FBTEI6UeVSCPtjcCPd-JPQc91Rt4UJcxPNtIs3mEKAKVJPZtOw-6bE9zVzT21pC8H-hp90JoLK9hXxfC1zT_WfPM9PBV8SjN7RbXmuxSU2cUtAYOCtdbUb2V4fijKCMJRIggaXDFvvsnTKYese5AAd9WMJ4ai8CqKRRdR2yk9IGR6HWa9SBJNjEOIzVR_Nwm1-HtsWKSZE_o_najCjRfiQunQhJTabJvvCERh0Ncitox5qROxbQpvKEZ_7ag9zBGEfoDjQMQigK1lt2M2XLCaB-d4CtHj2YaRa4kQsoOJg4Cvq5KabCKAs5b7EUSVp4YKt8lTgnngpng9UCrx0GZEEnBWwzbitEKorMcENU3Di36PNN4chcR7qBo0at7G747vJtAesKJQKiYqGZgiKWn4PEhiCAh4dXJcGiEe6A3Dm4mL_0G00?></g></svg>