<svg xmlns="http://www.w3.org/2000/svg" xmlns:xlink="http://www.w3.org/1999/xlink" contentStyleType="text/css" data-diagram-type="DESCRIPTION" height="595px" preserveAspectRatio="none" style="width:1900px;height:595px;background:#FFFFFF;" version="1.1" viewBox="0 0 1900 595" width="1900px" zoomAndPan="magnify"><?plantuml 1.2026.6?><defs/><g><g class="title" data-source-line="1"><text fill="#000000" font-family="sans-serif" font-size="14" font-weight="700" lengthAdjust="spacing" textLength="282.3926" x="805.3037" y="24.5332">NXP Automotive Software / Platform Stack</text></g><!--cluster Chip Families--><g class="cluster" data-qualified-name="Chip Families" data-source-line="4" id="ent0001"><path d="M8.5,44.6094 L100.5205,44.6094 A3.75,3.75 0 0 1 103.0205,47.1094 L110.0205,68.2188 L893.5,68.2188 A2.5,2.5 0 0 1 896,70.7188 L896,167.1094 A2.5,2.5 0 0 1 893.5,169.6094 L8.5,169.6094 A2.5,2.5 0 0 1 6,167.1094 L6,47.1094 A2.5,2.5 0 0 1 8.5,44.6094" fill="none" style="stroke:#000000;stroke-width:1.5;"/><line style="stroke:#000000;stroke-width:1.5;" x1="6" x2="110.0205" y1="68.2188" y2="68.2188"/><text fill="#000000" font-family="sans-serif" font-size="14" font-weight="700" lengthAdjust="spacing" textLength="91.0205" x="10" y="61.1426">Chip Families</text></g><!--cluster NXP Software--><g class="cluster" data-qualified-name="NXP Software" data-source-line="11" id="ent0006"><path d="M432.5,202.6094 L525.2998,202.6094 A3.75,3.75 0 0 1 527.7998,205.1094 L534.7998,226.2188 L1099.5,226.2188 A2.5,2.5 0 0 1 1102,228.7188 L1102,578.1094 A2.5,2.5 0 0 1 1099.5,580.6094 L432.5,580.6094 A2.5,2.5 0 0 1 430,578.1094 L430,205.1094 A2.5,2.5 0 0 1 432.5,202.6094" fill="none" style="stroke:#000000;stroke-width:1.5;"/><line style="stroke:#000000;stroke-width:1.5;" x1="430" x2="534.7998" y1="226.2188" y2="226.2188"/><text fill="#000000" font-family="sans-serif" font-size="14" font-weight="700" lengthAdjust="spacing" textLength="91.7998" x="434" y="219.1426">NXP Software</text></g><!--cluster Third-Party BSW (often layered on top of RTD)--><g class="cluster" data-qualified-name="Third-Party BSW .often layered on top of RTD." data-source-line="19" id="ent0012"><path d="M1128.5,473.6094 L1437.4932,473.6094 A3.75,3.75 0 0 1 1439.9932,476.1094 L1446.9932,497.2188 L1474.5,497.2188 A2.5,2.5 0 0 1 1477,499.7188 L1477,578.1094 A2.5,2.5 0 0 1 1474.5,580.6094 L1128.5,580.6094 A2.5,2.5 0 0 1 1126,578.1094 L1126,476.1094 A2.5,2.5 0 0 1 1128.5,473.6094" fill="none" style="stroke:#000000;stroke-width:1.5;"/><line style="stroke:#000000;stroke-width:1.5;" x1="1126" x2="1446.9932" y1="497.2188" y2="497.2188"/><text fill="#000000" font-family="sans-serif" font-size="14" font-weight="700" lengthAdjust="spacing" textLength="307.9932" x="1130" y="490.1426">Third-Party BSW (often layered on top of RTD)</text></g><!--cluster Debug & Trace--><g class="cluster" data-qualified-name="Debug . Trace" data-source-line="24" id="ent0015"><path d="M1503.5,473.6094 L1603.2998,473.6094 A3.75,3.75 0 0 1 1605.7998,476.1094 L1612.7998,497.2188 L1882.5,497.2188 A2.5,2.5 0 0 1 1885,499.7188 L1885,578.1094 A2.5,2.5 0 0 1 1882.5,580.6094 L1503.5,580.6094 A2.5,2.5 0 0 1 1501,578.1094 L1501,476.1094 A2.5,2.5 0 0 1 1503.5,473.6094" fill="none" style="stroke:#000000;stroke-width:1.5;"/><line style="stroke:#000000;stroke-width:1.5;" x1="1501" x2="1612.7998" y1="497.2188" y2="497.2188"/><text fill="#000000" font-family="sans-serif" font-size="14" font-weight="700" lengthAdjust="spacing" textLength="98.7998" x="1505" y="490.1426">Debug &amp; Trace</text></g><!--entity S32K--><g class="entity" data-qualified-name="Chip Families.S32K" data-source-line="5" id="ent0002"><rect fill="#F1F1F1" height="72.8281" rx="2.5" ry="2.5" style="stroke:#181818;stroke-width:0.5;" width="170.1855" x="251" y="80.6094"/><text fill="#000000" font-family="sans-serif" font-size="14" lengthAdjust="spacing" textLength="34.248" x="261" y="105.1426">S32K</text><text fill="#000000" font-family="sans-serif" font-size="14" lengthAdjust="spacing" textLength="61.4482" x="261" y="122.752">Cortex-M,</text><text fill="#000000" font-family="sans-serif" font-size="14" lengthAdjust="spacing" textLength="150.1855" x="261" y="140.3613">body/chassis/powertrain</text></g><!--entity S32G--><g class="entity" data-qualified-name="Chip Families.S32G" data-source-line="6" id="ent0003"><rect fill="#F1F1F1" height="72.8281" rx="2.5" ry="2.5" style="stroke:#181818;stroke-width:0.5;" width="180.6582" x="698.5" y="80.6094"/><text fill="#000000" font-family="sans-serif" font-size="14" lengthAdjust="spacing" textLength="35.7998" x="708.5" y="105.1426">S32G</text><text fill="#000000" font-family="sans-serif" font-size="14" lengthAdjust="spacing" textLength="55.2344" x="708.5" y="122.752">Cortex-A</text><text fill="#000000" font-family="sans-serif" font-size="14" lengthAdjust="spacing" textLength="3.8896" x="763.7344" y="122.752">&#160;</text><text fill="#000000" font-family="sans-serif" font-size="14" lengthAdjust="spacing" textLength="8.1758" x="767.624" y="122.752">+</text><text fill="#000000" font-family="sans-serif" font-size="14" lengthAdjust="spacing" textLength="3.8896" x="775.7998" y="122.752">&#160;</text><text fill="#000000" font-family="sans-serif" font-size="14" lengthAdjust="spacing" textLength="54.4551" x="779.6895" y="122.752">real-time</text><text fill="#000000" font-family="sans-serif" font-size="14" lengthAdjust="spacing" textLength="3.8896" x="834.1445" y="122.752">&#160;</text><text fill="#000000" font-family="sans-serif" font-size="14" lengthAdjust="spacing" textLength="31.124" x="838.0342" y="122.752">core,</text><text fill="#000000" font-family="sans-serif" font-size="14" lengthAdjust="spacing" textLength="94.1582" x="708.5" y="140.3613">gateway/ADAS</text></g><!--entity IMX--><g class="entity" data-qualified-name="Chip Families.IMX" data-source-line="7" id="ent0004"><rect fill="#F1F1F1" height="55.2188" rx="2.5" ry="2.5" style="stroke:#181818;stroke-width:0.5;" width="206.7441" x="456.5" y="89.6094"/><text fill="#000000" font-family="sans-serif" font-size="14" lengthAdjust="spacing" textLength="28" x="466.5" y="114.1426">i.MX</text><text fill="#000000" font-family="sans-serif" font-size="14" lengthAdjust="spacing" textLength="59.124" x="466.5" y="131.752">Cortex-A,</text><text fill="#000000" font-family="sans-serif" font-size="14" lengthAdjust="spacing" textLength="3.8896" x="525.624" y="131.752">&#160;</text><text fill="#000000" font-family="sans-serif" font-size="14" lengthAdjust="spacing" textLength="123.7305" x="529.5137" y="131.752">infotainment/cockpit</text></g><!--entity OTHER--><g class="entity" data-qualified-name="Chip Families.OTHER" data-source-line="8" id="ent0005"><rect fill="#F1F1F1" height="55.2188" rx="2.5" ry="2.5" style="stroke:#181818;stroke-width:0.5;" width="192.7578" x="22.5" y="89.6094"/><text fill="#000000" font-family="sans-serif" font-size="14" lengthAdjust="spacing" textLength="35.0205" x="32.5" y="114.1426">S32R</text><text fill="#000000" font-family="sans-serif" font-size="14" lengthAdjust="spacing" textLength="3.8896" x="67.5205" y="114.1426">&#160;</text><text fill="#000000" font-family="sans-serif" font-size="14" lengthAdjust="spacing" textLength="3.8896" x="71.4102" y="114.1426">/</text><text fill="#000000" font-family="sans-serif" font-size="14" lengthAdjust="spacing" textLength="3.8896" x="75.2998" y="114.1426">&#160;</text><text fill="#000000" font-family="sans-serif" font-size="14" lengthAdjust="spacing" textLength="36.5723" x="79.1895" y="114.1426">S32M</text><text fill="#000000" font-family="sans-serif" font-size="14" lengthAdjust="spacing" textLength="32.6826" x="32.5" y="131.752">radar</text><text fill="#000000" font-family="sans-serif" font-size="14" lengthAdjust="spacing" textLength="3.8896" x="65.1826" y="131.752">&#160;</text><text fill="#000000" font-family="sans-serif" font-size="14" lengthAdjust="spacing" textLength="3.8896" x="69.0723" y="131.752">/</text><text fill="#000000" font-family="sans-serif" font-size="14" lengthAdjust="spacing" textLength="3.8896" x="72.9619" y="131.752">&#160;</text><text fill="#000000" font-family="sans-serif" font-size="14" lengthAdjust="spacing" textLength="42.7998" x="76.8516" y="131.752">battery</text><text fill="#000000" font-family="sans-serif" font-size="14" lengthAdjust="spacing" textLength="3.8896" x="119.6514" y="131.752">&#160;</text><text fill="#000000" font-family="sans-serif" font-size="14" lengthAdjust="spacing" textLength="81.7168" x="123.541" y="131.752">management</text></g><!--entity RTD--><g class="entity" data-qualified-name="NXP Software.RTD" data-source-line="12" id="ent0007"><rect fill="#F1F1F1" height="55.2188" rx="2.5" ry="2.5" style="stroke:#181818;stroke-width:0.5;" width="192.6758" x="892.5" y="354.6094"/><text fill="#000000" font-family="sans-serif" font-size="14" lengthAdjust="spacing" textLength="24.9102" x="902.5" y="379.1426">S32</text><text fill="#000000" font-family="sans-serif" font-size="14" lengthAdjust="spacing" textLength="3.8896" x="927.4102" y="379.1426">&#160;</text><text fill="#000000" font-family="sans-serif" font-size="14" lengthAdjust="spacing" textLength="28.7725" x="931.2998" y="379.1426">RTD</text><text fill="#000000" font-family="sans-serif" font-size="14" lengthAdjust="spacing" textLength="69.2275" x="902.5" y="396.752">(Real-Time</text><text fill="#000000" font-family="sans-serif" font-size="14" lengthAdjust="spacing" textLength="3.8896" x="971.7275" y="396.752">&#160;</text><text fill="#000000" font-family="sans-serif" font-size="14" lengthAdjust="spacing" textLength="44.3311" x="975.6172" y="396.752">Drivers</text><text fill="#000000" font-family="sans-serif" font-size="14" lengthAdjust="spacing" textLength="3.8896" x="1019.9482" y="396.752">&#160;</text><text fill="#000000" font-family="sans-serif" font-size="14" lengthAdjust="spacing" textLength="3.8896" x="1023.8379" y="396.752">/</text><text fill="#000000" font-family="sans-serif" font-size="14" lengthAdjust="spacing" textLength="3.8896" x="1027.7275" y="396.752">&#160;</text><text fill="#000000" font-family="sans-serif" font-size="14" lengthAdjust="spacing" textLength="43.5586" x="1031.6172" y="396.752">MCAL)</text></g><!--entity S32DS--><g class="entity" data-qualified-name="NXP Software.S32DS" data-source-line="13" id="ent0008"><rect fill="#F1F1F1" height="55.2188" rx="2.5" ry="2.5" style="stroke:#181818;stroke-width:0.5;" width="199.3545" x="886.5" y="238.6094"/><text fill="#000000" font-family="sans-serif" font-size="14" lengthAdjust="spacing" textLength="24.9102" x="896.5" y="263.1426">S32</text><text fill="#000000" font-family="sans-serif" font-size="14" lengthAdjust="spacing" textLength="3.8896" x="921.4102" y="263.1426">&#160;</text><text fill="#000000" font-family="sans-serif" font-size="14" lengthAdjust="spacing" textLength="43.5791" x="925.2998" y="263.1426">Design</text><text fill="#000000" font-family="sans-serif" font-size="14" lengthAdjust="spacing" textLength="3.8896" x="968.8789" y="263.1426">&#160;</text><text fill="#000000" font-family="sans-serif" font-size="14" lengthAdjust="spacing" textLength="39.6963" x="972.7686" y="263.1426">Studio</text><text fill="#000000" font-family="sans-serif" font-size="14" lengthAdjust="spacing" textLength="3.8896" x="1012.4648" y="263.1426">&#160;</text><text fill="#000000" font-family="sans-serif" font-size="14" lengthAdjust="spacing" textLength="53.6826" x="1016.3545" y="263.1426">(S32DS)</text><text fill="#000000" font-family="sans-serif" font-size="14" lengthAdjust="spacing" textLength="45.1309" x="896.5" y="280.752">Eclipse</text><text fill="#000000" font-family="sans-serif" font-size="14" lengthAdjust="spacing" textLength="3.8896" x="941.6309" y="280.752">&#160;</text><text fill="#000000" font-family="sans-serif" font-size="14" lengthAdjust="spacing" textLength="23.3379" x="945.5205" y="280.752">IDE</text><text fill="#000000" font-family="sans-serif" font-size="14" lengthAdjust="spacing" textLength="3.8896" x="968.8584" y="280.752">&#160;</text><text fill="#000000" font-family="sans-serif" font-size="14" lengthAdjust="spacing" textLength="8.1758" x="972.748" y="280.752">+</text><text fill="#000000" font-family="sans-serif" font-size="14" lengthAdjust="spacing" textLength="3.8896" x="980.9238" y="280.752">&#160;</text><text fill="#000000" font-family="sans-serif" font-size="14" lengthAdjust="spacing" textLength="31.1104" x="984.8135" y="280.752">GCC</text><text fill="#000000" font-family="sans-serif" font-size="14" lengthAdjust="spacing" textLength="3.8896" x="1015.9238" y="280.752">&#160;</text><text fill="#000000" font-family="sans-serif" font-size="14" lengthAdjust="spacing" textLength="56.041" x="1019.8135" y="280.752">toolchain</text></g><!--entity S32CFG--><g class="entity" data-qualified-name="NXP Software.S32CFG" data-source-line="14" id="ent0009"><rect fill="#F1F1F1" height="55.2188" rx="2.5" ry="2.5" style="stroke:#181818;stroke-width:0.5;" width="170.1992" x="904" y="509.6094"/><text fill="#000000" font-family="sans-serif" font-size="14" lengthAdjust="spacing" textLength="24.9102" x="914" y="534.1426">S32</text><text fill="#000000" font-family="sans-serif" font-size="14" lengthAdjust="spacing" textLength="3.8896" x="938.9102" y="534.1426">&#160;</text><text fill="#000000" font-family="sans-serif" font-size="14" lengthAdjust="spacing" textLength="83.2754" x="942.7998" y="534.1426">Configuration</text><text fill="#000000" font-family="sans-serif" font-size="14" lengthAdjust="spacing" textLength="3.8896" x="1026.0752" y="534.1426">&#160;</text><text fill="#000000" font-family="sans-serif" font-size="14" lengthAdjust="spacing" textLength="27.2344" x="1029.9648" y="534.1426">Tool</text><text fill="#000000" font-family="sans-serif" font-size="14" lengthAdjust="spacing" textLength="38.8965" x="914" y="551.752">MCAL</text><text fill="#000000" font-family="sans-serif" font-size="14" lengthAdjust="spacing" textLength="3.8896" x="952.8965" y="551.752">&#160;</text><text fill="#000000" font-family="sans-serif" font-size="14" lengthAdjust="spacing" textLength="37.3584" x="956.7861" y="551.752">config</text><text fill="#000000" font-family="sans-serif" font-size="14" lengthAdjust="spacing" textLength="3.8896" x="994.1445" y="551.752">&#160;</text><text fill="#000000" font-family="sans-serif" font-size="14" lengthAdjust="spacing" textLength="66.165" x="998.0342" y="551.752">generation</text></g><!--entity SDK--><g class="entity" data-qualified-name="NXP Software.SDK" data-source-line="15" id="ent0010"><rect fill="#F1F1F1" height="37.6094" rx="2.5" ry="2.5" style="stroke:#181818;stroke-width:0.5;" width="179.5234" x="671" y="247.1094"/><text fill="#000000" font-family="sans-serif" font-size="14" lengthAdjust="spacing" textLength="24.9102" x="681" y="271.6426">S32</text><text fill="#000000" font-family="sans-serif" font-size="14" lengthAdjust="spacing" textLength="3.8896" x="705.9102" y="271.6426">&#160;</text><text fill="#000000" font-family="sans-serif" font-size="14" lengthAdjust="spacing" textLength="28.7861" x="709.7998" y="271.6426">SDK</text><text fill="#000000" font-family="sans-serif" font-size="14" lengthAdjust="spacing" textLength="3.8896" x="738.5859" y="271.6426">&#160;</text><text fill="#000000" font-family="sans-serif" font-size="14" lengthAdjust="spacing" textLength="3.8896" x="742.4756" y="271.6426">/</text><text fill="#000000" font-family="sans-serif" font-size="14" lengthAdjust="spacing" textLength="3.8896" x="746.3652" y="271.6426">&#160;</text><text fill="#000000" font-family="sans-serif" font-size="14" lengthAdjust="spacing" textLength="54.4688" x="750.2549" y="271.6426">Example</text><text fill="#000000" font-family="sans-serif" font-size="14" lengthAdjust="spacing" textLength="3.8896" x="804.7236" y="271.6426">&#160;</text><text fill="#000000" font-family="sans-serif" font-size="14" lengthAdjust="spacing" textLength="31.9102" x="808.6133" y="271.6426">Apps</text></g><!--entity BSP--><g class="entity" data-qualified-name="NXP Software.BSP" data-source-line="16" id="ent0011"><rect fill="#F1F1F1" height="55.2188" rx="2.5" ry="2.5" style="stroke:#181818;stroke-width:0.5;" width="188.8545" x="446.5" y="238.6094"/><text fill="#000000" font-family="sans-serif" font-size="14" lengthAdjust="spacing" textLength="33.4688" x="456.5" y="263.1426">Linux</text><text fill="#000000" font-family="sans-serif" font-size="14" lengthAdjust="spacing" textLength="3.8896" x="489.9688" y="263.1426">&#160;</text><text fill="#000000" font-family="sans-serif" font-size="14" lengthAdjust="spacing" textLength="28.0137" x="493.8584" y="263.1426">BSP</text><text fill="#000000" font-family="sans-serif" font-size="14" lengthAdjust="spacing" textLength="3.8896" x="521.8721" y="263.1426">&#160;</text><text fill="#000000" font-family="sans-serif" font-size="14" lengthAdjust="spacing" textLength="99.5928" x="525.7617" y="263.1426">(meta-nxp-auto)</text><text fill="#000000" font-family="sans-serif" font-size="14" lengthAdjust="spacing" textLength="16.3379" x="456.5" y="280.752">for</text><text fill="#000000" font-family="sans-serif" font-size="14" lengthAdjust="spacing" textLength="3.8896" x="472.8379" y="280.752">&#160;</text><text fill="#000000" font-family="sans-serif" font-size="14" lengthAdjust="spacing" textLength="35.7998" x="476.7275" y="280.752">S32G</text><text fill="#000000" font-family="sans-serif" font-size="14" lengthAdjust="spacing" textLength="3.8896" x="512.5273" y="280.752">&#160;</text><text fill="#000000" font-family="sans-serif" font-size="14" lengthAdjust="spacing" textLength="3.8896" x="516.417" y="280.752">/</text><text fill="#000000" font-family="sans-serif" font-size="14" lengthAdjust="spacing" textLength="3.8896" x="520.3066" y="280.752">&#160;</text><text fill="#000000" font-family="sans-serif" font-size="14" lengthAdjust="spacing" textLength="28" x="524.1963" y="280.752">i.MX</text></g><!--entity EB--><g class="entity" data-qualified-name="Third-Party BSW .often layered on top of RTD..EB" data-source-line="20" id="ent0013"><rect fill="#F1F1F1" height="55.2188" rx="2.5" ry="2.5" style="stroke:#181818;stroke-width:0.5;" width="143.7236" x="1317" y="509.6094"/><text fill="#000000" font-family="sans-serif" font-size="14" lengthAdjust="spacing" textLength="18.6758" x="1327" y="534.1426">EB</text><text fill="#000000" font-family="sans-serif" font-size="14" lengthAdjust="spacing" textLength="3.8896" x="1345.6758" y="534.1426">&#160;</text><text fill="#000000" font-family="sans-serif" font-size="14" lengthAdjust="spacing" textLength="38.124" x="1349.5654" y="534.1426">tresos</text><text fill="#000000" font-family="sans-serif" font-size="14" lengthAdjust="spacing" textLength="3.8896" x="1387.6895" y="534.1426">&#160;</text><text fill="#000000" font-family="sans-serif" font-size="14" lengthAdjust="spacing" textLength="59.1445" x="1391.5791" y="534.1426">AutoCore</text><text fill="#000000" font-family="sans-serif" font-size="14" lengthAdjust="spacing" textLength="67.6826" x="1327" y="551.752">(Elektrobit)</text></g><!--entity VEC--><g class="entity" data-qualified-name="Third-Party BSW .often layered on top of RTD..VEC" data-source-line="21" id="ent0014"><rect fill="#F1F1F1" height="37.6094" rx="2.5" ry="2.5" style="stroke:#181818;stroke-width:0.5;" width="139.7998" x="1142" y="518.1094"/><text fill="#000000" font-family="sans-serif" font-size="14" lengthAdjust="spacing" textLength="40.4619" x="1152" y="542.6426">Vector</text><text fill="#000000" font-family="sans-serif" font-size="14" lengthAdjust="spacing" textLength="3.8896" x="1192.4619" y="542.6426">&#160;</text><text fill="#000000" font-family="sans-serif" font-size="14" lengthAdjust="spacing" textLength="75.4482" x="1196.3516" y="542.6426">MICROSAR</text></g><!--entity T32--><g class="entity" data-qualified-name="Debug . Trace.T32" data-source-line="25" id="ent0016"><rect fill="#F1F1F1" height="37.6094" rx="2.5" ry="2.5" style="stroke:#181818;stroke-width:0.5;" width="145.3027" x="1517.5" y="518.1094"/><text fill="#000000" font-family="sans-serif" font-size="14" lengthAdjust="spacing" textLength="70.0547" x="1527.5" y="542.6426">Lauterbach</text><text fill="#000000" font-family="sans-serif" font-size="14" lengthAdjust="spacing" textLength="3.8896" x="1597.5547" y="542.6426">&#160;</text><text fill="#000000" font-family="sans-serif" font-size="14" lengthAdjust="spacing" textLength="51.3584" x="1601.4443" y="542.6426">Trace32</text></g><!--entity PROBE--><g class="entity" data-qualified-name="Debug . Trace.PROBE" data-source-line="26" id="ent0017"><rect fill="#F1F1F1" height="55.2188" rx="2.5" ry="2.5" style="stroke:#181818;stroke-width:0.5;" width="170.9854" x="1697.5" y="509.6094"/><text fill="#000000" font-family="sans-serif" font-size="14" lengthAdjust="spacing" textLength="24.9102" x="1707.5" y="534.1426">S32</text><text fill="#000000" font-family="sans-serif" font-size="14" lengthAdjust="spacing" textLength="3.8896" x="1732.4102" y="534.1426">&#160;</text><text fill="#000000" font-family="sans-serif" font-size="14" lengthAdjust="spacing" textLength="41.2549" x="1736.2998" y="534.1426">Debug</text><text fill="#000000" font-family="sans-serif" font-size="14" lengthAdjust="spacing" textLength="3.8896" x="1777.5547" y="534.1426">&#160;</text><text fill="#000000" font-family="sans-serif" font-size="14" lengthAdjust="spacing" textLength="37.3584" x="1781.4443" y="534.1426">Probe</text><text fill="#000000" font-family="sans-serif" font-size="14" lengthAdjust="spacing" textLength="3.8896" x="1818.8027" y="534.1426">&#160;</text><text fill="#000000" font-family="sans-serif" font-size="14" lengthAdjust="spacing" textLength="3.8896" x="1822.6924" y="534.1426">/</text><text fill="#000000" font-family="sans-serif" font-size="14" lengthAdjust="spacing" textLength="3.8896" x="1826.582" y="534.1426">&#160;</text><text fill="#000000" font-family="sans-serif" font-size="14" lengthAdjust="spacing" textLength="28.0137" x="1830.4717" y="534.1426">P&amp;E</text><text fill="#000000" font-family="sans-serif" font-size="14" lengthAdjust="spacing" textLength="50.5654" x="1707.5" y="551.752">Multilink</text></g><!--link S32K to RTD--><g class="link" data-entity-1="ent0002" data-entity-2="ent0007" data-link-type="dependency" data-source-line="29" id="lnk18"><path d="M344.58,153.7794 C356.37,194.5194 381.69,259.8894 429,293.6094 C501.62,345.3694 747.1295,367.392 887.2295,376.022" fill="none" id="S32K-to-RTD" style="stroke:#181818;stroke-width:1;"/><polygon fill="#181818" points="892.22,376.3294,883.483,371.7836,887.2295,376.022,882.9911,379.7685,892.22,376.3294" style="stroke:#181818;stroke-width:1;stroke-linejoin:miter;stroke-miterlimit:10;"/></g><!--link S32G to RTD--><g class="link" data-entity-1="ent0003" data-entity-2="ent0007" data-link-type="dependency" data-source-line="30" id="lnk19"><path d="M879.78,127.8394 C962.43,138.7794 1075.62,159.7494 1103,194.6094 C1130.18,229.2094 1122.46,254.1494 1103,293.6094 C1090.2,319.5694 1069.8197,337.3029 1046.7397,351.8529" fill="none" id="S32G-to-RTD" style="stroke:#181818;stroke-width:1;"/><polygon fill="#181818" points="1042.51,354.5194,1052.2566,353.1035,1046.7397,351.8529,1047.9902,346.336,1042.51,354.5194" style="stroke:#181818;stroke-width:1;stroke-linejoin:miter;stroke-miterlimit:10;"/></g><!--link S32G to BSP--><g class="link" data-entity-1="ent0003" data-entity-2="ent0011" data-link-type="dependency" data-source-line="31" id="lnk20"><path d="M724.81,153.7494 C702.3,166.4394 676.92,180.9694 654,194.6094 C630.15,208.7994 608.0582,222.5006 586.8282,235.9006" fill="none" id="S32G-to-BSP" style="stroke:#181818;stroke-width:1;"/><polygon fill="#181818" points="582.6,238.5694,592.3458,237.1482,586.8282,235.9006,588.0758,230.383,582.6,238.5694" style="stroke:#181818;stroke-width:1;stroke-linejoin:miter;stroke-miterlimit:10;"/></g><!--link IMX to BSP--><g class="link" data-entity-1="ent0004" data-entity-2="ent0011" data-link-type="dependency" data-source-line="32" id="lnk21"><path d="M556.56,144.7294 C553.14,171.2094 548.5499,206.6505 545.1199,233.2305" fill="none" id="IMX-to-BSP" style="stroke:#181818;stroke-width:1;"/><polygon fill="#181818" points="544.48,238.1894,549.599,229.7753,545.1199,233.2305,541.6647,228.7515,544.48,238.1894" style="stroke:#181818;stroke-width:1;stroke-linejoin:miter;stroke-miterlimit:10;"/></g><!--link RTD to S32CFG--><g class="link" data-entity-1="ent0007" data-entity-2="ent0009" data-link-type="dependency" data-source-line="34" id="lnk22"><path d="M989,409.7594 C989,437.7594 989,476.5294 989,504.5094" fill="none" id="RTD-to-S32CFG" style="stroke:#181818;stroke-width:1;"/><polygon fill="#181818" points="989,509.5094,993,500.5094,989,504.5094,985,500.5094,989,509.5094" style="stroke:#181818;stroke-width:1;stroke-linejoin:miter;stroke-miterlimit:10;"/></g><!--link S32DS to RTD--><g class="link" data-entity-1="ent0008" data-entity-2="ent0007" data-link-type="dependency" data-source-line="35" id="lnk23"><path d="M986.7,293.8394 C987.18,312.1294 987.6886,331.2911 988.1686,349.5511" fill="none" id="S32DS-to-RTD" style="stroke:#181818;stroke-width:1;"/><polygon fill="#181818" points="988.3,354.5494,992.0621,345.4474,988.1686,349.5511,984.0649,345.6576,988.3,354.5494" style="stroke:#181818;stroke-width:1;stroke-linejoin:miter;stroke-miterlimit:10;"/></g><!--reverse link RTD to EB--><g class="link" data-entity-1="ent0007" data-entity-2="ent0013" data-link-type="dependency" data-source-line="36" id="lnk24"><path d="M1090.5076,397.4234 C1154.2576,409.1434 1233.13,429.2694 1300,465.6094 C1322,477.5594 1344.07,495.0094 1360.73,509.5494" fill="none" id="RTD-backto-EB" style="stroke:#181818;stroke-width:1;"/><polygon fill="#181818" points="1085.59,396.5194,1093.7184,402.0808,1090.5076,397.4234,1095.1649,394.2126,1085.59,396.5194" style="stroke:#181818;stroke-width:1;stroke-linejoin:miter;stroke-miterlimit:10;"/><text fill="#000000" font-family="sans-serif" font-size="13" lengthAdjust="spacing" textLength="42.6182" x="1277" y="454.1045">imports</text><text fill="#000000" font-family="sans-serif" font-size="13" lengthAdjust="spacing" textLength="3.6118" x="1319.6182" y="454.1045">&#160;</text><text fill="#000000" font-family="sans-serif" font-size="13" lengthAdjust="spacing" textLength="36.1182" x="1323.23" y="454.1045">MCAL</text><text fill="#000000" font-family="sans-serif" font-size="13" lengthAdjust="spacing" textLength="3.6118" x="1359.3481" y="454.1045">&#160;</text><text fill="#000000" font-family="sans-serif" font-size="13" lengthAdjust="spacing" textLength="34.6899" x="1362.96" y="454.1045">config</text></g><!--reverse link RTD to VEC--><g class="link" data-entity-1="ent0007" data-entity-2="ent0014" data-link-type="dependency" data-source-line="37" id="lnk25"><path d="M1031.9632,412.5876 C1077.1432,443.5776 1146.37,491.0794 1185.47,517.9094" fill="none" id="RTD-backto-VEC" style="stroke:#181818;stroke-width:1;"/><polygon fill="#181818" points="1027.84,409.7594,1032.9993,418.1488,1031.9632,412.5876,1037.5244,411.5516,1027.84,409.7594" style="stroke:#181818;stroke-width:1;stroke-linejoin:miter;stroke-miterlimit:10;"/><text fill="#000000" font-family="sans-serif" font-size="13" lengthAdjust="spacing" textLength="42.6182" x="1094" y="454.1045">imports</text><text fill="#000000" font-family="sans-serif" font-size="13" lengthAdjust="spacing" textLength="3.6118" x="1136.6182" y="454.1045">&#160;</text><text fill="#000000" font-family="sans-serif" font-size="13" lengthAdjust="spacing" textLength="36.1182" x="1140.23" y="454.1045">MCAL</text><text fill="#000000" font-family="sans-serif" font-size="13" lengthAdjust="spacing" textLength="3.6118" x="1176.3481" y="454.1045">&#160;</text><text fill="#000000" font-family="sans-serif" font-size="13" lengthAdjust="spacing" textLength="34.6899" x="1179.96" y="454.1045">config</text></g><!--link RTD to T32--><g class="link" data-entity-1="ent0007" data-entity-2="ent0016" data-link-type="dependency" data-source-line="39" id="lnk26"><path d="M1085.59,383.5194 C1187.73,387.4994 1351.16,404.1294 1477,465.6094 C1508.37,480.9394 1537.9224,499.8875 1560.2724,515.1675" fill="none" id="RTD-to-T32" style="stroke:#181818;stroke-width:1;"/><polygon fill="#181818" points="1564.4,517.9894,1559.2279,509.6079,1560.2724,515.1675,1554.7128,516.212,1564.4,517.9894" style="stroke:#181818;stroke-width:1;stroke-linejoin:miter;stroke-miterlimit:10;"/></g><!--link RTD to PROBE--><g class="link" data-entity-1="ent0007" data-entity-2="ent0017" data-link-type="dependency" data-source-line="40" id="lnk27"><path d="M1085.56,388.9394 C1249.14,399.7494 1573.41,425.5494 1680,465.6094 C1706.78,475.6694 1729.4106,490.9823 1748.8506,506.4823" fill="none" id="RTD-to-PROBE" style="stroke:#181818;stroke-width:1;"/><polygon fill="#181818" points="1752.76,509.5994,1748.2167,500.8611,1748.8506,506.4823,1743.2293,507.1162,1752.76,509.5994" style="stroke:#181818;stroke-width:1;stroke-linejoin:miter;stroke-miterlimit:10;"/></g><!--link SDK to RTD--><g class="link" data-entity-1="ent0010" data-entity-2="ent0007" data-link-type="dependency" data-source-line="41" id="lnk28"><path d="M797.13,285.1694 C834.42,303.8194 888.5377,330.8837 931.1677,352.1937" fill="none" id="SDK-to-RTD" style="stroke:#181818;stroke-width:1;"/><polygon fill="#181818" points="935.64,354.4294,929.3783,346.8273,931.1677,352.1937,925.8013,353.9831,935.64,354.4294" style="stroke:#181818;stroke-width:1;stroke-linejoin:miter;stroke-miterlimit:10;"/></g><?plantuml-src TLF1Rjf04Btp5ICE4L5nYSYjgYePsw5HuWRPLf83by4iPeMzkreF1LJrtpkx51BgzEHTpxmtCs_UagHQm8_N6OHRqeqc-LD0hbUqGojW1BCQQQLj0pbXkUcr6waCMcnWPz6yo2MjONnpq-iPZc8be1-jfO4xR6GjHTk7Npq0Aqf2LN6TVduxVfYhI5iI-o0Tma8l3wDoZMqhsv7HEs79ebHzm1PSRWSzFQD3-CGnh0EIZO1IMp642adiy30Aup0_SKmlEUJdzFMDOmXIhJHnoKOe6fMwt1X97dgVldQgPwm8VzAvihX4oxS54WbxW0OLZ-z8FFYf-9valT_lT74IdtJzI1R8YdYk1fcRg70JnPPNOLkkaKRXuxMdvPmkC1Qjh1GlQBkK6WRyAywlvoefQsbQ0VTnmafDemX8wvgrVfCtphjiaLOhMMqjajGA2eRCbMk05NO1g8GIn-299RgRTcdo-84xJ_RO6FuL6jCUq-D_LleerNOFatm6WqOG1cfl0cGdyW1iExy_vd5BytXEl52rM4kx36PewS2n5nYmma91ZGTXnH9u0j86zCefTzsHFPa0MT7grfkVFI5u0qajDcJrGj9HysHo2Nhc8tUMtaVPKnvcFkSvYIxQYiLYMy4L51RBxhOVUK1X5rYkZmctOqzIt8u_MgvZcd4__ZLU9P1kQ-B7fJOUDCkU9echxLuB1C4txn4lM-VYn6DNdyyzZlhBtoLwHvnXBlWr27X--0AoCVnYMdZdX7C23_-VZ7C1DzhfVEpO-UDKwGy0?></g></svg>